{"title":"Mission Impossible Rogue Nation (2015) HDRip XviD-MAXSPEED","uid":12516576,"size":1593274125,"categoryP":"video","categoryS":"movies","magnet":"?xt=urn:btih:c6f60cb861866dfeeaee984cdcb41af0b58ffde8&amp;dn=Mission+Impossible+Rogue+Nation+%282015%29+HDRip+XviD-MAXSPEED&amp;tr=udp%3A%2F%2Ftracker.leechers-paradise.org%3A6969&amp;tr=udp%3A%2F%2Fzer0day.ch%3A1337&amp;tr=udp%3A%2F%2Fopen.demonii.com%3A1337&amp;tr=udp%3A%2F%2Ftracker.coppersurfer.tk%3A6969&amp;tr=udp%3A%2F%2Fexodus.desync.com%3A6969","seeders":4,"leechers":2,"uploader":"extremezone","files":4,"time":1443779284,"description":"http://i.imgur.com/t8zAZTD.jpg\r\n\r\nScreens:\r\n \nhttp://i.imgur.com/FnxLOFo.jpg \nhttp://i.imgur.com/RnjVZAZ.jpg \nhttp://i.imgur.com/RZKoWoM.jpg \nhttp://i.imgur.com/u4d6MX9.jpg\r\n\r\nScreenCaps:\r\n \nhttp://i.imgur.com/2SJ93N7.jpg\r\n\r\nMission Impossible Rogue Nation (2015) HDRip XviD-MAXSPEED\r\nFormat                                   : AVI\r\nFormat/Info                              : Audio Video Interleave\r\nFormat profile                           : OpenDML\r\nFormat settings                          : rec\r\nFile size                                : 1.48 GiB\r\nDuration                                 : 2h 11mn\r\nOverall bit rate                         : 1 610 Kbps\r\nWriting application                      : VirtualDubMod 1.5.10.2 (build 2542/release)\r\nWriting library                          : VirtualDubMod build 2542/release\r\nOriginal source form                     : MAX TORRENTZ\r\nCopyright                                : SIGISMUNT\r\n\r\nVideo\r\nID                                       : 0\r\nFormat                                   : MPEG-4 Visual\r\nFormat profile                           : Advanced   \r\nFormat settings, BVOP                    : 2\r\nFormat settings, QPel                    : No\r\nFormat settings, GMC                     : No warppoints\r\nFormat settings, Matrix                  : Default (H.263)\r\nMuxing mode                              : Packed bitstream\r\nCodec ID                                 : XVID\r\nCodec ID/Hint                            : XviD\r\nDuration                                 : 2h 11mn\r\nBit rate                                 : 1 348 Kbps\r\nWidth                                    : 720 pixels\r\nHeight                                   : 304 pixels\r\nDisplay aspect ratio                     : 2.35:1\r\nFrame rate                               : 29.970 fps\r\nColor space                              : YUV\r\nChroma subsampling                       : 4:2:0\r\nBit depth                                : 8 bits\r\nScan type                                : Progressive\r\nCompression mode                         : Lossy\r\nBits/(Pixel*Frame)                       : 0.205\r\nStream size                              : 1.24 GiB (84%)\r\nWriting library                          : XviD 66\r\n\r\nAudio\r\nID                                       : 1\r\nFormat                                   : AC-3\r\nFormat/Info                              : Audio Coding 3\r\nMode extension                           : CM (complete main)\r\nFormat settings, Endianness              : Big\r\nCodec ID                                 : 2000\r\nDuration                                 : 2h 11mn\r\nBit rate mode                            : Constant\r\nBit rate                                 : 256 Kbps\r\nChannel(s)                               : 6 channels\r\nChannel positions                        : Front: L C R, Side: L R, LFE\r\nSampling rate                            : 48.0 KHz\r\nBit depth                                : 16 bits\r\nCompression mode                         : Lossy\r\nStream size                              : 241 MiB (16%)\r\nAlignment                                : Aligned on interleaves\r\nInterleave, duration                     : 64 ms (1.92 video frames)\r\nInterleave, preload duration             : 192 ms\r\n\r\n\r\nSource: 1080p Swc-No Framerate issues as other encodes (clean encode/source, perfect a/v/sync\r\nquality,sample included)\r\nThis torrent is not seedbox supported,please seed it to the MAX\r\n\r\nUploader Note: If you think image it's a little dark on your device then\r\nVLC-&gt;Ctrl+E-&gt;Video Effects-&gt;Image adjust-&gt;Brightness-&gt;Close, simple as 1,2,3\r\nso no more complaints about this please,thank you\r\n\r\nNote: If you have something as early releases, seedboxes  http://torentz.3xforum.ro\r\n\r\nHow To Get Your MAXSPEED (uTorrent)\r\n\r\nTorrent Client - Preferences - Bandwidth - Number of connections - Set aprox. 500 for each\r\nTorrent Client - Preferences - BiTorrent - Protocol Encryption - Forced\r\nBandwidth Allocation - High (Set download/upload limit - Unlimited)\r\nStop Other Active Torrents - Start downloading and wait for connections.\r\nEnjoy and Seed for at least 1:1 ratio. Don't forget to say thanks/leave reviews.\r\nFor other 480p, 720p, 1080p, x264, mkv, Bluray HD downloads use search function.\r\nIf screens/Caps image host is dead googlesearch &quot;release name&quot;+&quot;screens&quot; or &quot;sample&quot;.\r\nGreets to all actual/future p2p/scene QUALITY groups and affiliate websites.\r\nDon't trust IMDb robots/bots bad ratings,always watch some trailers first.\r\nIgnore stupid comments/fake/mislabeled/no-DVDrips/CAM/TS/RAR uploads.\r\nPlease spread this release/torrent to your friends/forums/etc.\r\nIf you need translation subs visit some subtitles sites.\r\nReport if you see online streaming or other spam links.\r\nMAXSPEED free full movie downloads 2008-2015.\r\nRecommended movie player VLC PLAYER","torrent":{"xt":"urn:btih:c6f60cb861866dfeeaee984cdcb41af0b58ffde8","amp;dn":"Mission+Impossible+Rogue+Nation+%282015%29+HDRip+XviD-MAXSPEED","amp;tr":["udp%3A%2F%2Ftracker.leechers-paradise.org%3A6969","udp%3A%2F%2Fzer0day.ch%3A1337","udp%3A%2F%2Fopen.demonii.com%3A1337","udp%3A%2F%2Ftracker.coppersurfer.tk%3A6969","udp%3A%2F%2Fexodus.desync.com%3A6969"],"infoHash":"c6f60cb861866dfeeaee984cdcb41af0b58ffde8","infoHashBuffer":{"type":"Buffer","data":[198,246,12,184,97,134,109,254,234,238,152,76,220,180,26,240,181,143,253,232]},"announce":[],"urlList":[]}}